<svg id="Capa_1" enable-background="new 0 0 512.003 512.003" height="512" viewBox="0 0 512.003 512.003" width="512" xmlns="http://www.w3.org/2000/svg"><g><g><path d="m138.542 429.074h-.343c-8.254 0-14.946-6.691-14.946-14.946v-33.968c0-8.254 6.691-14.946 14.946-14.946h.343c8.254 0 14.946 6.691 14.946 14.946v33.969c0 8.254-6.692 14.945-14.946 14.945z" fill="#99e6fc"/><path d="m216.963 353.342h-.343c-8.254 0-14.946-6.691-14.946-14.946v-14.751c0-8.254 6.691-14.946 14.946-14.946h.343c8.254 0 14.946 6.691 14.946 14.946v14.751c0 8.255-6.692 14.946-14.946 14.946z" fill="#c8effe"/><path d="m216.963 504.5h-.343c-8.254 0-14.946-6.691-14.946-14.946v-87.157c0-8.254 6.691-14.946 14.946-14.946h.343c8.254 0 14.946 6.691 14.946 14.946v87.157c0 8.255-6.692 14.946-14.946 14.946z" fill="#fedf30"/><path d="m295.384 491.473h-.343c-8.254 0-14.946-6.691-14.946-14.946v-4.508c0-8.254 6.691-14.946 14.946-14.946h.343c8.254 0 14.946 6.691 14.946 14.946v4.508c0 8.255-6.692 14.946-14.946 14.946z" fill="#c8effe"/><path d="m216.963 308.7h-.343c-2.536 0-4.922.636-7.015 1.751 4.717 2.513 7.931 7.476 7.931 13.194v14.751c0 5.718-3.214 10.681-7.931 13.194 2.092 1.115 4.478 1.751 7.015 1.751h.343c8.254 0 14.946-6.691 14.946-14.946v-14.751c0-8.253-6.692-14.944-14.946-14.944z" fill="#99e6fc"/><path d="m295.384 457.074h-.343c-2.536 0-4.922.636-7.015 1.751 4.717 2.513 7.931 7.476 7.931 13.194v4.508c0 5.718-3.214 10.681-7.931 13.194 2.092 1.115 4.478 1.751 7.015 1.751h.343c8.254 0 14.946-6.691 14.946-14.946v-4.508c0-8.252-6.692-14.944-14.946-14.944z" fill="#99e6fc"/><path d="m373.805 452.071h-.343c-8.254 0-14.946-6.691-14.946-14.946v-54.199c0-8.254 6.691-14.946 14.946-14.946h.343c8.254 0 14.946 6.691 14.946 14.946v54.199c-.001 8.254-6.692 14.946-14.946 14.946z" fill="#fedf30"/><path d="m389.381 335.821-79.05-51.33-30.24-19.63-11.72-7.61c-.26-.17-.52-.34-.77-.5-3.98-2.53-7.58-3.77-11.42-3.68-3.76.08-7.76 1.46-12.56 4.18l-120.99 78.57c-17.2 6.02-33.56-.91-42.63-13.25-7.96-10.82-10.32-25.8-2.75-39.87l133.47-248.14c9.74-18.11 27.61-27.12 45.46-27.06 17.73.06 35.44 9.07 45.11 27.06l133.46 248.14c16.2 30.11-13.09 64.409-45.37 53.12z" fill="#0593fc"/><path d="m267.601 256.75c-3.98-2.53-7.58-3.77-11.42-3.68-3.76.08-7.76 1.46-12.56 4.18l-120.99 78.57c-17.2 6.02-33.56-.91-42.63-13.25 5.88.99 12.23.57 18.69-1.69l110.56-71.81c3.43-2.22 4.01-7 1.23-9.98l-8-8.56c4.8-2.72 8.8-4.1 12.56-4.18 4.08-.1 7.9 1.32 12.19 4.18z" fill="#0182fc"/><g><g><path d="m434.751 282.696-133.465-248.138c-9.67-17.984-27.371-26.996-45.102-27.057-4.909-.017-9.813.678-14.555 2.034 12.501 3.576 23.841 11.899 30.897 25.023l133.465 248.138c11.293 20.986.485 44-18.03 52.205l1.415.919c32.287 11.287 61.579-23.012 45.375-53.124z" fill="#0182fc"/></g></g><path d="m295.384 422.089h-.343c-8.254 0-14.946-6.691-14.946-14.946v-176.291c0-8.254 6.691-14.946 14.946-14.946h.343c8.254 0 14.946 6.691 14.946 14.946v176.291c0 8.254-6.692 14.946-14.946 14.946z" fill="#99e6fc"/><path d="m138.542 365.214h-.343c-2.952 0-5.697.868-8.015 2.345 4.162 2.653 6.931 7.299 6.931 12.6v33.969c0 5.302-2.768 9.947-6.931 12.601 2.318 1.478 5.062 2.345 8.015 2.345h.343c8.254 0 14.946-6.691 14.946-14.946v-33.968c0-8.255-6.692-14.946-14.946-14.946z" fill="#62dbfb"/><path d="m216.963 387.452h-.343c-2.952 0-5.697.868-8.015 2.345 4.162 2.653 6.931 7.299 6.931 12.6v87.157c0 5.302-2.768 9.947-6.931 12.6 2.318 1.478 5.062 2.345 8.015 2.345h.343c8.254 0 14.946-6.691 14.946-14.946v-87.157c0-8.253-6.692-14.944-14.946-14.944z" fill="#fac600"/><path d="m373.805 367.981h-.343c-2.952 0-5.697.867-8.015 2.345 4.162 2.653 6.931 7.299 6.931 12.601v54.199c0 5.302-2.768 9.947-6.931 12.6 2.318 1.478 5.062 2.345 8.015 2.345h.343c8.254 0 14.946-6.691 14.946-14.946v-54.199c-.001-8.254-6.692-14.945-14.946-14.945z" fill="#fac600"/><path d="m295.384 215.906h-.343c-2.952 0-5.697.867-8.015 2.345 4.162 2.653 6.931 7.299 6.931 12.601v176.291c0 5.302-2.768 9.947-6.931 12.6 2.318 1.478 5.062 2.345 8.015 2.345h.343c8.254 0 14.946-6.691 14.946-14.946v-176.29c0-8.254-6.692-14.946-14.946-14.946z" fill="#62dbfb"/></g><g><path d="m138.542 357.714h-.344c-12.376 0-22.445 10.069-22.445 22.446v33.969c0 12.376 10.069 22.446 22.445 22.446 11.904.309 22.779-10.011 22.789-22.446v-33.969c.001-12.377-10.068-22.446-22.445-22.446zm7.446 56.414c.04 3.128-3.064 7.48-7.789 7.446-4.105 0-7.445-3.34-7.445-7.446v-33.968c0-4.105 3.34-7.446 7.445-7.446 3.254-.145 7.502 2.655 7.789 7.446z"/><path d="m216.963 301.2h-.344c-12.376 0-22.445 10.069-22.445 22.445v14.751c0 12.376 10.069 22.445 22.445 22.445 11.904.309 22.779-10.01 22.789-22.445v-14.751c.001-12.376-10.068-22.445-22.445-22.445zm7.446 37.196c.04 3.128-3.064 7.479-7.789 7.445-4.105 0-7.445-3.34-7.445-7.445v-14.751c0-4.105 3.34-7.445 7.445-7.445 3.254-.145 7.502 2.655 7.789 7.445z"/><path d="m216.963 379.952h-.344c-12.376 0-22.445 10.069-22.445 22.445v12.324c0 4.142 3.358 7.5 7.5 7.5s7.5-3.358 7.5-7.5v-12.324c0-4.105 3.34-7.445 7.445-7.445 3.254-.145 7.502 2.655 7.789 7.445v87.157c0 4.105-3.34 7.446-7.445 7.446-3.254.145-7.502-2.655-7.789-7.446v-39.485c0-4.142-3.358-7.5-7.5-7.5s-7.5 3.358-7.5 7.5v39.485c-.116 11.919 10.341 22.616 22.789 22.446 12.376 0 22.445-10.069 22.445-22.446v-87.157c.001-12.376-10.068-22.445-22.445-22.445z"/><path d="m295.384 449.574h-.343c-12.376 0-22.445 10.069-22.445 22.446v4.508c0 12.376 10.069 22.445 22.445 22.445 11.904.309 22.779-10.01 22.789-22.445v-4.508c0-12.376-10.07-22.446-22.446-22.446zm7.446 26.954c.04 3.128-3.064 7.479-7.789 7.445-4.105 0-7.445-3.34-7.445-7.445v-4.508c0-4.105 3.34-7.446 7.445-7.446 3.253-.145 7.502 2.655 7.789 7.446z"/><path d="m373.805 360.481h-.343c-12.376 0-22.445 10.069-22.445 22.445v54.199c0 12.376 10.069 22.446 22.445 22.446 11.904.309 22.779-10.011 22.789-22.446v-54.199c-.001-12.376-10.07-22.445-22.446-22.445zm7.445 76.644c.04 3.128-3.064 7.479-7.789 7.446-4.105 0-7.445-3.34-7.445-7.446v-54.199c0-4.105 3.34-7.445 7.445-7.445 3.253-.145 7.502 2.655 7.789 7.445z"/><path d="m441.356 279.148-133.459-248.138c-10.397-19.343-29.72-30.935-51.69-31.01-.072 0-.141 0-.212 0-22.046 0-41.431 11.581-51.878 31.008l-133.471 248.139c-8.994 16.717-6.923 36.069 5.404 50.505 11.991 14.127 32.744 20.289 50.666 12.458l120.793-78.442c6.272-2.936 8.988-5.07 16.777-.127l8.309 5.395v138.207c0 12.376 10.069 22.446 22.445 22.446 11.904.309 22.779-10.011 22.789-22.446v-176.291c.116-11.918-10.341-22.615-22.789-22.445-12.376 0-22.445 10.069-22.445 22.445v20.194l-41.205-26.755c-5.762-3.846-11-5.579-16.513-5.437-4.967.107-10.082 1.743-16.097 5.149-3.604 2.042-4.872 6.618-2.831 10.222 2.042 3.604 6.619 4.871 10.222 2.831 3.771-2.135 6.639-3.154 9.052-3.206 1.552-.042 3.855.259 7.918 2.97l19.327 12.55c-.87.463.065-.083-2.934 1.591l-120.195 78.054c-13.928 4.48-25.566-1.704-31.884-9.103-6.438-7.54-10.766-20.341-3.601-33.658l133.473-248.141c7.788-14.482 22.235-23.113 38.671-23.113h.158c16.377.056 30.78 8.695 38.53 23.113l133.461 248.141c7.165 13.317 2.836 26.119-3.603 33.66-6.317 7.398-17.953 13.581-31.873 9.1l-48.521-31.506c-3.474-2.255-8.119-1.269-10.375 2.206-2.256 3.474-1.269 8.119 2.206 10.375l49.316 32.022c16.108 7.269 38.27 2.662 50.653-12.455 12.329-14.437 14.401-33.791 5.406-50.508zm-153.761-48.296c0-4.105 3.34-7.445 7.445-7.445 3.253-.145 7.502 2.655 7.789 7.445v176.292c.04 3.128-3.064 7.479-7.789 7.446-4.105 0-7.445-3.34-7.445-7.446z"/></g></g></svg>